<svg width="334" height="192" viewBox="0 0 334 192" fill="none" xmlns="http://www.w3.org/2000/svg">
<rect x="2" width="326" height="184" rx="20" fill="url(#paint0_linear_114_579)"/>
<g filter="url(#filter0_d_114_579)">
<mask id="mask0_114_579" style="mask-type:alpha" maskUnits="userSpaceOnUse" x="4" y="0" width="326" height="184">
<rect x="4" width="326" height="184" rx="20" fill="#ED713C"/>
</mask>
<g mask="url(#mask0_114_579)">
<ellipse opacity="0.1" cx="29.3556" cy="213" rx="166.105" ry="113" fill="black"/>
<ellipse opacity="0.08" cx="304.644" cy="-29" rx="166.105" ry="113" fill="black"/>
</g>
</g>
<path d="M267.371 27.9742H279.963V49.8367H267.371V27.9742Z" fill="#FF5F00"/>
<path d="M258.856 60.8409V58.5234C258.856 57.6348 258.296 57.0556 257.337 57.0556C256.857 57.0556 256.338 57.2101 255.978 57.7123C255.698 57.2873 255.298 57.0556 254.699 57.0556C254.299 57.0556 253.899 57.1714 253.579 57.5963V57.1328H252.74V60.8409H253.579V58.7937C253.579 58.1372 253.939 57.828 254.499 57.828C255.058 57.828 255.338 58.1757 255.338 58.7937V60.8409H256.178V58.7937C256.178 58.1372 256.577 57.828 257.097 57.828C257.657 57.828 257.937 58.1757 257.937 58.7937V60.8409H258.856V60.8409ZM271.288 57.1328H269.929V56.0127H269.09V57.1328H268.33V57.8666H269.09V59.5663C269.09 60.4162 269.449 60.9182 270.409 60.9182C270.769 60.9182 271.168 60.8024 271.448 60.6479L271.208 59.9525C270.969 60.107 270.689 60.1457 270.489 60.1457C270.089 60.1457 269.929 59.914 269.929 59.5276V57.8666H271.288V57.1328V57.1328ZM278.404 57.0554C277.924 57.0554 277.605 57.2873 277.405 57.5963V57.1328H276.565V60.8409H277.405V58.7551C277.405 58.1372 277.684 57.7895 278.204 57.7895C278.364 57.7895 278.564 57.8282 278.724 57.8668L278.964 57.0943C278.804 57.0556 278.564 57.0556 278.404 57.0556V57.0554ZM267.651 57.4418C267.251 57.1714 266.691 57.0556 266.092 57.0556C265.132 57.0556 264.493 57.5191 264.493 58.253C264.493 58.8711 264.972 59.2186 265.812 59.3346L266.212 59.3733C266.651 59.4503 266.891 59.5663 266.891 59.7595C266.891 60.0298 266.571 60.223 266.012 60.223C265.452 60.223 265.012 60.0298 264.732 59.8367L264.333 60.4547C264.772 60.7637 265.372 60.9182 265.972 60.9182C267.091 60.9182 267.731 60.4162 267.731 59.7208C267.731 59.0641 267.211 58.7164 266.411 58.6007L266.012 58.562C265.652 58.5232 265.372 58.4462 265.372 58.2144C265.372 57.944 265.652 57.7895 266.092 57.7895C266.571 57.7895 267.051 57.9825 267.291 58.0985L267.651 57.4418V57.4418ZM289.957 57.0556C289.477 57.0556 289.157 57.2873 288.957 57.5963V57.1328H288.118V60.8409H288.957V58.7551C288.957 58.1372 289.237 57.7895 289.757 57.7895C289.917 57.7895 290.117 57.8282 290.277 57.8668L290.516 57.0943C290.357 57.0556 290.117 57.0556 289.957 57.0556V57.0556ZM279.243 58.9869C279.243 60.107 280.043 60.9182 281.282 60.9182C281.842 60.9182 282.242 60.8024 282.641 60.4934L282.242 59.8367C281.922 60.0685 281.602 60.1843 281.242 60.1843C280.563 60.1843 280.083 59.7208 280.083 58.9869C280.083 58.2917 280.563 57.828 281.242 57.7895C281.602 57.7895 281.922 57.9053 282.242 58.1372L282.641 57.4805C282.242 57.1714 281.842 57.0556 281.282 57.0556C280.043 57.0556 279.243 57.8668 279.243 58.9869ZM286.999 58.9869V57.1328H286.159V57.5963C285.879 57.2488 285.48 57.0556 284.96 57.0556C283.881 57.0556 283.041 57.8668 283.041 58.9869C283.041 60.107 283.881 60.9182 284.96 60.9182C285.519 60.9182 285.919 60.7251 286.159 60.3774V60.8409H286.999V58.9869V58.9869ZM283.92 58.9869C283.92 58.3302 284.36 57.7895 285.08 57.7895C285.759 57.7895 286.239 58.2917 286.239 58.9869C286.239 59.6435 285.759 60.1843 285.08 60.1843C284.36 60.1455 283.92 59.6435 283.92 58.9869V58.9869ZM273.887 57.0556C272.767 57.0556 271.968 57.828 271.968 58.9869C271.968 60.1457 272.767 60.9182 273.927 60.9182C274.486 60.9182 275.046 60.7637 275.486 60.4162L275.086 59.8367C274.766 60.0685 274.366 60.223 273.967 60.223C273.447 60.223 272.927 59.9912 272.807 59.3344H275.646V59.0256C275.686 57.828 274.966 57.0556 273.887 57.0556H273.887ZM273.887 57.7508C274.406 57.7508 274.766 58.06 274.846 58.6394H272.847C272.927 58.1372 273.287 57.7508 273.887 57.7508ZM294.714 58.9869V55.665H293.874V57.5963C293.594 57.2488 293.195 57.0556 292.675 57.0556C291.596 57.0556 290.756 57.8668 290.756 58.9869C290.756 60.107 291.596 60.9182 292.675 60.9182C293.235 60.9182 293.635 60.7251 293.874 60.3774V60.8409H294.714V58.9869V58.9869ZM291.636 58.9869C291.636 58.3302 292.075 57.7895 292.795 57.7895C293.475 57.7895 293.954 58.2917 293.954 58.9869C293.954 59.6435 293.475 60.1843 292.795 60.1843C292.075 60.1455 291.636 59.6435 291.636 58.9869V58.9869ZM263.573 58.9869V57.1328H262.734V57.5963C262.454 57.2488 262.054 57.0556 261.534 57.0556C260.455 57.0556 259.616 57.8668 259.616 58.9869C259.616 60.107 260.455 60.9182 261.534 60.9182C262.094 60.9182 262.494 60.7251 262.734 60.3774V60.8409H263.573V58.9869V58.9869ZM260.455 58.9869C260.455 58.3302 260.895 57.7895 261.614 57.7895C262.294 57.7895 262.774 58.2917 262.774 58.9869C262.774 59.6435 262.294 60.1843 261.614 60.1843C260.895 60.1455 260.455 59.6435 260.455 58.9869V58.9869Z" fill="white"/>
<path d="M268.17 38.9055C268.17 34.4635 270.329 30.5236 273.646 27.9742C271.208 26.1201 268.13 25 264.772 25C256.817 25 250.381 31.2188 250.381 38.9055C250.381 46.5921 256.817 52.811 264.772 52.811C268.13 52.811 271.208 51.6909 273.646 49.8367C270.329 47.326 268.17 43.3475 268.17 38.9055V38.9055Z" fill="#EB001B"/>
<path d="M296.952 38.9055C296.952 46.5921 290.516 52.811 282.561 52.811C279.203 52.811 276.125 51.6909 273.686 49.8367C277.044 47.2874 279.163 43.3475 279.163 38.9055C279.163 34.4635 277.004 30.5236 273.686 27.9742C276.125 26.1201 279.203 25 282.561 25C290.516 25 296.952 31.2575 296.952 38.9055H296.952Z" fill="#F79E1B"/>
<defs>
<filter id="filter0_d_114_579" x="0" y="0" width="334" height="192" filterUnits="userSpaceOnUse" color-interpolation-filters="sRGB">
<feFlood flood-opacity="0" result="BackgroundImageFix"/>
<feColorMatrix in="SourceAlpha" type="matrix" values="0 0 0 0 0 0 0 0 0 0 0 0 0 0 0 0 0 0 127 0" result="hardAlpha"/>
<feOffset dy="4"/>
<feGaussianBlur stdDeviation="2"/>
<feComposite in2="hardAlpha" operator="out"/>
<feColorMatrix type="matrix" values="0 0 0 0 0 0 0 0 0 0 0 0 0 0 0 0 0 0 0.25 0"/>
<feBlend mode="normal" in2="BackgroundImageFix" result="effect1_dropShadow_114_579"/>
<feBlend mode="normal" in="SourceGraphic" in2="effect1_dropShadow_114_579" result="shape"/>
</filter>
<linearGradient id="paint0_linear_114_579" x1="166.124" y1="-30.5053" x2="172.611" y2="207.048" gradientUnits="userSpaceOnUse">
<stop stop-color="#9C2CF3"/>
<stop offset="1" stop-color="#3A6FF9"/>
</linearGradient>
</defs>
</svg>
